<?xml version="1.0" encoding="utf-8"?>
<!-- Generator: Adobe Illustrator 12.0.1, SVG Export Plug-In . SVG Version: 6.00 Build 51448)  -->
<!DOCTYPE svg PUBLIC "-//W3C//DTD SVG 1.1//EN" "http://www.w3.org/Graphics/SVG/1.1/DTD/svg11.dtd" [
	<!ENTITY ns_svg "http://www.w3.org/2000/svg">
	<!ENTITY ns_xlink "http://www.w3.org/1999/xlink">
]>
<svg  version="1.1" id="Elements" xmlns="&ns_svg;" xmlns:xlink="&ns_xlink;" width="504" height="602.838"
	 viewBox="0 0 504 602.838" overflow="visible" enable-background="new 0 0 504 602.838" xml:space="preserve">
<path fill="#92A778" d="M452.703,1.323c-150.182-1.765-300.366-1.765-450.546,0c-2.521,100.028-2.828,200.053-0.938,300.096
	C-0.672,401.46-0.365,501.486,2.156,601.515c150.181,1.765,300.365,1.765,450.546,0c2.518-100.028,2.821-200.052,0.938-300.096
	C455.524,201.376,455.22,101.352,452.703,1.323z M121.231,357.796c-0.066,12.532-0.093,18.8-0.13,31.332
	c-10.864,0.015-16.297,0.023-27.161,0.042c0.047-12.52,0.081-18.779,0.164-31.298C104.954,357.838,110.381,357.823,121.231,357.796z
	 M87.796,357.892c-0.087,12.515-0.122,18.774-0.172,31.29c-10.864,0.02-16.296,0.031-27.161,0.054
	c0.06-12.499,0.102-18.749,0.206-31.248C71.519,357.945,76.945,357.926,87.796,357.892z M60.435,395.542
	c10.866-0.02,16.299-0.029,27.166-0.046c-0.043,12.515-0.055,18.773-0.06,31.29c-10.872,0.002-16.307,0.002-27.177,0.005
	C60.372,414.292,60.385,408.043,60.435,395.542z M60.486,477.978c10.863,0.025,16.293,0.038,27.156,0.06
	c0.055,12.517,0.093,18.775,0.185,31.292c-10.848-0.037-16.272-0.06-27.121-0.104C60.596,496.726,60.552,490.478,60.486,477.978z
	 M61.117,546.771c-0.164-12.501-0.232-18.75-0.352-31.25c10.844,0.048,16.267,0.069,27.11,0.109
	c0.1,12.517,0.159,18.774,0.296,31.291C77.35,546.865,71.939,546.835,61.117,546.771z M93.918,395.486
	c10.866-0.017,16.299-0.024,27.164-0.037c-0.032,12.532-0.04,18.799-0.044,31.331c-10.871,0.001-16.308,0.003-27.179,0.006
	C93.865,414.266,93.877,408.006,93.918,395.486z M93.957,478.051c10.863,0.021,16.294,0.03,27.157,0.046
	c0.043,12.532,0.071,18.799,0.141,31.331c-10.848-0.028-16.271-0.043-27.119-0.078C94.047,496.829,94.011,490.57,93.957,478.051z
	 M94.463,546.951c-0.132-12.52-0.188-18.78-0.284-31.3c10.846,0.038,16.268,0.056,27.112,0.087
	c0.076,12.532,0.121,18.798,0.226,31.33C110.695,547.027,105.284,547.004,94.463,546.951z M224.259,426.771
	c-10.865,0-16.302,0-27.167,0.001c0.001-12.553,0.004-18.829,0.014-31.382c10.861-0.003,16.293-0.004,27.153-0.005
	C224.257,407.94,224.259,414.217,224.259,426.771z M224.259,389.054c-10.859,0.001-16.29,0.001-27.148,0.006
	c0.011-12.552,0.018-18.829,0.036-31.382c10.846-0.008,16.27-0.009,27.115-0.01C224.26,370.223,224.26,376.499,224.259,389.054z
	 M230.589,426.771c0-12.555,0-18.831-0.001-31.386c10.866,0.001,16.298,0.002,27.164,0.005c0.01,12.553,0.013,18.829,0.014,31.382
	C246.896,426.771,241.459,426.771,230.589,426.771z M230.584,357.668c10.851,0.001,16.275,0.001,27.126,0.009
	c0.02,12.553,0.026,18.831,0.037,31.383c-10.863-0.005-16.295-0.006-27.159-0.007C230.587,376.498,230.587,370.223,230.584,357.668z
	 M360.384,546.95c-10.821,0.053-16.235,0.077-27.057,0.118c0.104-12.532,0.151-18.798,0.228-31.33
	c10.845-0.031,16.269-0.048,27.113-0.086C360.573,528.172,360.515,534.43,360.384,546.95z M360.715,509.35
	c-10.848,0.035-16.275,0.05-27.124,0.078c0.071-12.532,0.1-18.799,0.141-31.331c10.863-0.016,16.296-0.025,27.158-0.046
	C360.838,490.57,360.804,496.829,360.715,509.35z M333.615,357.796c10.851,0.027,16.278,0.042,27.129,0.075
	c0.083,12.519,0.116,18.779,0.164,31.299c-10.864-0.019-16.298-0.027-27.162-0.042C333.708,376.596,333.681,370.328,333.615,357.796
	z M333.809,426.78c-0.003-12.532-0.013-18.799-0.045-31.331c10.866,0.013,16.299,0.021,27.165,0.037
	c0.041,12.52,0.053,18.779,0.058,31.299C350.117,426.783,344.679,426.781,333.809,426.78z M393.728,546.771
	c-10.821,0.064-16.23,0.094-27.052,0.149c0.137-12.517,0.194-18.774,0.295-31.291c10.844-0.04,16.267-0.061,27.111-0.108
	C393.962,528.021,393.892,534.271,393.728,546.771z M394.14,509.229c-10.849,0.044-16.271,0.063-27.119,0.101
	c0.093-12.517,0.128-18.774,0.184-31.291c10.862-0.021,16.294-0.035,27.156-0.061C394.295,490.478,394.25,496.728,394.14,509.229z
	 M367.05,357.892c10.851,0.034,16.277,0.054,27.128,0.096c0.104,12.499,0.146,18.749,0.205,31.248
	c-10.864-0.022-16.297-0.034-27.161-0.054C367.172,376.664,367.137,370.406,367.05,357.892z M367.306,426.786
	c-0.005-12.516-0.018-18.774-0.061-31.29c10.867,0.017,16.299,0.026,27.166,0.046c0.051,12.501,0.064,18.75,0.07,31.249
	C383.612,426.788,378.176,426.788,367.306,426.786z M504,301.423h-0.008v-0.008H504V301.423z"/>
</svg>
