<?xml version="1.0" standalone="no"?>
<!DOCTYPE svg PUBLIC "-//W3C//DTD SVG 20010904//EN"
 "http://www.w3.org/TR/2001/REC-SVG-20010904/DTD/svg10.dtd">
<svg version="1.0" xmlns="http://www.w3.org/2000/svg"
 width="127.000000pt" height="99.000000pt" viewBox="0 0 127.000000 99.000000"
 preserveAspectRatio="xMidYMid meet">
<metadata>
Created by potrace 1.13, written by Peter Selinger 2001-2015
</metadata>
<g transform="translate(0.000000,99.000000) scale(0.100000,-0.100000)"
fill="#000000" stroke="none">
<path d="M47 942 c-15 -17 -17 -62 -17 -444 0 -399 1 -426 18 -441 17 -15 73
-17 594 -17 544 0 576 1 591 18 15 17 17 62 17 444 0 399 -1 426 -18 441 -17
15 -73 17 -594 17 -544 0 -576 -1 -591 -18z m1178 -442 l0 -435 -585 0 -585 0
-3 425 c-1 234 0 431 3 438 3 10 126 12 587 10 l583 -3 0 -435z"/>
</g>
</svg>
