<?xml version="1.0" standalone="no"?>
<!DOCTYPE svg PUBLIC "-//W3C//DTD SVG 20010904//EN"
 "http://www.w3.org/TR/2001/REC-SVG-20010904/DTD/svg10.dtd">
<svg version="1.0" xmlns="http://www.w3.org/2000/svg"
 width="125.000000pt" height="97.000000pt" viewBox="0 0 125.000000 97.000000"
 preserveAspectRatio="xMidYMid meet">
<metadata>
Created by potrace 1.13, written by Peter Selinger 2001-2015
</metadata>
<g transform="translate(0.000000,97.000000) scale(0.100000,-0.100000)"
fill="#000000" stroke="none">
<path d="M38 929 c-17 -9 -18 -41 -18 -449 0 -428 1 -440 20 -450 27 -15 1143
-15 1170 0 19 10 20 22 20 450 0 424 -1 440 -19 450 -27 14 -1149 13 -1173 -1z
m878 -219 c154 -121 279 -227 279 -234 0 -16 -551 -456 -570 -456 -20 0 -570
440 -570 456 0 15 550 454 570 454 7 0 138 -99 291 -220z m-347 206 c-2 -2
-123 -99 -269 -214 l-265 -209 -3 191 c-1 105 0 201 3 214 l5 22 267 0 c146 0
264 -2 262 -4z m646 -18 c3 -13 4 -109 3 -214 l-3 -191 -265 209 c-146 115
-267 212 -269 214 -2 2 116 4 262 4 l267 0 5 -22z m-892 -668 l234 -185 -255
-3 c-198 -2 -257 1 -264 10 -4 7 -8 104 -8 215 l0 201 29 -26 c16 -15 134
-110 264 -212z m892 -167 l-5 -23 -262 0 -261 0 199 158 c110 86 227 179 262
206 34 27 63 54 64 60 2 6 4 -77 6 -184 1 -107 0 -205 -3 -217z"/>
</g>
</svg>
