<?xml version="1.0" encoding="utf-8"?>
<!-- Generator: Adobe Illustrator 12.0.1, SVG Export Plug-In . SVG Version: 6.00 Build 51448)  -->
<!DOCTYPE svg PUBLIC "-//W3C//DTD SVG 1.1//EN" "http://www.w3.org/Graphics/SVG/1.1/DTD/svg11.dtd" [
	<!ENTITY ns_svg "http://www.w3.org/2000/svg">
	<!ENTITY ns_xlink "http://www.w3.org/1999/xlink">
]>
<svg  version="1.1" id="Elements" xmlns="&ns_svg;" xmlns:xlink="&ns_xlink;" width="152.75" height="432" viewBox="0 0 152.75 432"
	 overflow="visible" enable-background="new 0 0 152.75 432" xml:space="preserve">
<path d="M43.446,372.003c0.28,0.743,0.441,1.546,0.441,2.387c0,3.755-3.046,6.789-6.788,6.789c-3.756,0-6.789-3.034-6.789-6.789
	c0-3.743,3.033-6.789,6.789-6.789c1.111,0,2.158,0.274,3.084,0.749c-0.932,0.395-1.586,1.316-1.586,2.391
	c0,1.434,1.163,2.595,2.596,2.595C42.165,373.335,43.002,372.794,43.446,372.003z M118.306,382.855
	c-1.433,0-2.595-1.162-2.595-2.594c0-1.203,0.824-2.206,1.935-2.5c-1.063-0.729-2.348-1.156-3.733-1.156
	c-3.657,0-6.62,2.951-6.62,6.609c0,3.645,2.963,6.607,6.62,6.607c3.646,0,6.608-2.963,6.608-6.607c0-0.48-0.054-0.947-0.15-1.398
	C119.896,382.443,119.152,382.855,118.306,382.855z M79.254,383.725c-1.433,0-2.595-1.16-2.595-2.594
	c0-1.066,0.646-1.982,1.566-2.381c-0.879-0.389-1.85-0.609-2.873-0.609c-3.938,0-7.121,3.182-7.121,7.108
	c0,3.938,3.183,7.12,7.121,7.12c3.926,0,7.108-3.182,7.108-7.12c0-1.163-0.285-2.257-0.78-3.227
	C81.316,383.014,80.372,383.725,79.254,383.725z M139.068,407.378c-0.644,0.784-1.349,1.56-2.116,2.327h-0.009
	c-1.736,1.746-3.8,3.429-6.144,5.007c-5.607,3.782-12.828,7.018-21.079,9.292c-8.252,2.266-17.535,3.588-27.276,3.588
	c-1.815,0-3.658-0.053-5.51-0.141c-0.229-0.009-0.468-0.027-0.696-0.044c-6.832-0.37-12.95-1.111-18.549-2.39
	c-3.79-0.864-7.36-1.975-10.764-3.403c-4.381-1.833-8.498-4.169-12.527-7.167c-1.26-0.934-2.513-1.939-3.755-3.015
	c-3.526-3.042-7.018-6.639-10.562-10.905c-1.878-2.257-3.764-4.698-5.678-7.335c3.756-2.001,5.034-5.563,4.664-7.837
	c-2.134,2.98-12.713,9.248-19.068,2.451c0,4.02,3.852,7.458,9.943,6.727c4.822,6.77,9.521,12.386,14.309,17.032
	c7.405,7.176,15.066,12.024,23.608,15.153c8.542,3.139,17.923,4.576,28.846,5.131c1.93,0.098,3.844,0.15,5.738,0.15
	c13.515,0,26.184-2.425,36.735-6.462c5.281-2.02,10.023-4.435,14.088-7.176c4.063-2.742,7.44-5.801,9.962-9.134
	c0.026-0.035,0.044-0.079,0.07-0.123c4.866,1.084,8.596-1.217,9.45-4.699c-7.793,5.078-16.573-3.525-17.931-6.929
	C133.779,399.901,134.449,404.513,139.068,407.378z M74.18,0h-0.007v0.007h0.007V0z"/>
</svg>
