<?xml version="1.0" encoding="utf-8"?>
<!-- Generator: Adobe Illustrator 12.0.1, SVG Export Plug-In . SVG Version: 6.00 Build 51448)  -->
<!DOCTYPE svg PUBLIC "-//W3C//DTD SVG 1.1//EN" "http://www.w3.org/Graphics/SVG/1.1/DTD/svg11.dtd" [
	<!ENTITY ns_svg "http://www.w3.org/2000/svg">
	<!ENTITY ns_xlink "http://www.w3.org/1999/xlink">
]>
<svg  version="1.1" id="Elements" xmlns="&ns_svg;" xmlns:xlink="&ns_xlink;" width="288" height="282.105"
	 viewBox="0 0 288 282.105" overflow="visible" enable-background="new 0 0 288 282.105" xml:space="preserve">
<path fill="#FFC20E" d="M288,154.322c-7.206-18.676-33.417-21.952-40.953-21.952c8.355-6.226,8.601-11.468,8.601-11.468
	s-3.031-4.915-7.29-6.881c13.761-6.553,26.867-26.539,26.867-32.437c-6.553-6.554-22.951-9.082-28.505-4.915
	c11.795-8.847,8.191-25.884,8.191-25.884c-6.88-3.276-26.54-4.588-40.628,9.501c0,0,1.147-7.044-1.638-9.829
	c-4.915,0-16.382,3.932-16.382,3.932c6.226-6.226,9.338-35.877,0.328-44.888c-8.846,0-30.783,13.337-32.109,30.472
	c0,0-3.604-8.52-6.553-8.52c-2.949,0-7.863,4.915-7.863,4.915S144.821,6.226,129.093,0c-9.501,3.932-13.433,28.506-13.433,28.506
	c-8.355-12.287-19.987-20.97-26.54-20.97c-5.243,8.847-5.378,36.082-1.638,44.888c0,0-4.915-3.932-8.847-3.932
	c-2.621,2.621-0.328,16.822-0.328,16.822C67.061,45.108,29.816,49.588,29.816,49.588c0,7.429,9.655,36.671,25.229,43.137
	c0,0-11.304-0.164-14.089,2.621c0,4.26,8.847,13.106,8.847,13.106c-17.038-6.881-39.318-1.311-45.215,4.587
	c4.259,7.208,5.242,17.037,25.229,23.918C14.089,136.957,0,153.995,0,153.995c5.227,5.227,18.021,14.416,42.594,14.416
	c0,0-3.932,4.587-3.932,7.208c2.293,2.294,14.089,5.898,14.089,5.898c-16.874,1.475-28.178,22.279-28.178,35.386
	c14.744,5.57,32.765,1.638,44.232-6.226c0,0-3.112,9.993,0,13.106c5.57,0,13.434-1.966,13.434-1.966
	c-8.683,8.683-15.072,26.212-5.897,46.198c13.106-3.276,24.737-14.908,24.737-14.908c-3.44,9.666,5.079,23.1,10.976,28.997
	c10.813-4.26,23.004-19.357,23.591-34.403c0,0,6.364,8.191,10.226,8.191c3.243-3.241,7.794-8.847,7.794-8.847
	c0,6.881,8.191,26.212,27.85,34.73c15.727-13.105,6.226-45.87,6.226-45.87c2.293,2.293,9.829,5.569,9.829,5.569
	s4.915-6.553,4.915-11.468c3.932,7.864,21.625,17.693,38.334,19.659c4.587-11.795-3.604-30.799-3.604-30.799
	c8.191,4.915,28.505,3.932,28.505,3.932c4.915-7.863-8.163-33.276-26.54-39.317c0,0,8.027,0.164,11.795-3.604
	c0-4.587-5.57-14.744-5.57-14.744C250.979,169.066,278.821,166.64,288,154.322z"/>
</svg>
