<?xml version="1.0" encoding="utf-8"?>
<!-- Generator: Adobe Illustrator 12.0.1, SVG Export Plug-In . SVG Version: 6.00 Build 51448)  -->
<!DOCTYPE svg PUBLIC "-//W3C//DTD SVG 1.1//EN" "http://www.w3.org/Graphics/SVG/1.1/DTD/svg11.dtd" [
	<!ENTITY ns_svg "http://www.w3.org/2000/svg">
	<!ENTITY ns_xlink "http://www.w3.org/1999/xlink">
]>
<svg  version="1.1" id="Elements" xmlns="&ns_svg;" xmlns:xlink="&ns_xlink;" width="288" height="282.105"
	 viewBox="0 0 288 282.105" overflow="visible" enable-background="new 0 0 288 282.105" xml:space="preserve">
<path fill="#BA8F08" d="M288,154.322c-7.206-18.676-33.417-21.952-40.953-21.952c8.355-6.226,8.601-11.468,8.601-11.468
	s-3.031-4.915-7.29-6.881c13.761-6.553,26.867-26.539,26.867-32.437c-6.553-6.554-22.951-9.082-28.505-4.915
	c11.795-8.847,8.191-25.884,8.191-25.884c-6.88-3.276-26.54-4.588-40.628,9.501c0,0,1.147-7.044-1.638-9.829
	c-4.915,0-16.382,3.932-16.382,3.932c6.226-6.226,9.338-35.877,0.328-44.888c-8.846,0-30.783,13.337-32.109,30.472
	c0,0-3.604-8.52-6.553-8.52c-2.949,0-7.863,4.915-7.863,4.915S144.821,6.226,129.093,0c-9.501,3.932-13.433,28.506-13.433,28.506
	c-8.355-12.287-19.987-20.97-26.54-20.97c-5.243,8.847-5.378,36.082-1.638,44.888c0,0-4.915-3.932-8.847-3.932
	c-2.621,2.621-0.328,16.822-0.328,16.822C67.061,45.108,29.816,49.588,29.816,49.588c0,7.429,9.655,36.671,25.229,43.137
	c0,0-11.304-0.164-14.089,2.621c0,4.26,8.847,13.106,8.847,13.106c-17.038-6.881-39.318-1.311-45.215,4.587
	c4.259,7.208,5.242,17.037,25.229,23.918C14.089,136.957,0,153.995,0,153.995c5.227,5.227,18.021,14.416,42.594,14.416
	c0,0-3.932,4.587-3.932,7.208c2.293,2.294,14.089,5.898,14.089,5.898c-16.874,1.475-28.178,22.279-28.178,35.386
	c14.744,5.57,32.765,1.638,44.232-6.226c0,0-3.112,9.993,0,13.106c5.57,0,13.434-1.966,13.434-1.966
	c-8.683,8.683-15.072,26.212-5.897,46.198c13.106-3.276,24.737-14.908,24.737-14.908c-3.44,9.666,5.079,23.1,10.976,28.997
	c10.813-4.26,23.004-19.357,23.591-34.403c0,0,6.364,8.191,10.226,8.191c3.243-3.241,7.794-8.847,7.794-8.847
	c0,6.881,8.191,26.212,27.85,34.73c15.727-13.105,6.226-45.87,6.226-45.87c2.293,2.293,9.829,5.569,9.829,5.569
	s4.915-6.553,4.915-11.468c3.932,7.864,21.625,17.693,38.334,19.659c4.587-11.795-3.604-30.799-3.604-30.799
	c8.191,4.915,28.505,3.932,28.505,3.932c4.915-7.863-8.163-33.276-26.54-39.317c0,0,8.027,0.164,11.795-3.604
	c0-4.587-5.57-14.744-5.57-14.744C250.979,169.066,278.821,166.64,288,154.322z M267.036,84.067
	c-7.874,18.098-35.624,33.84-49.833,22.931C224.091,85.793,252.701,76.896,267.036,84.067z M203.628,146.817
	c-14.703,11.14-44.532,11.247-51.116-4.142C167.843,128.556,195.232,134.402,203.628,146.817z M170.075,126.534
	c3.896-20.007,28.042-31.096,41.317-26.079C206.321,117.744,183.606,134.961,170.075,126.534z M195.527,131.971
	c10.989-18.338,39.62-20.519,51.481-10.751C235.766,136.44,206.464,145.189,195.527,131.971z M249.087,56.074
	c-3.187,19.475-26.217,41.555-42.674,34.47C207.883,68.3,233.429,52.645,249.087,56.074z M206.459,59.243
	c1.835,18.343-13.592,43.828-30.139,41.438C172.259,80.254,191.503,59.944,206.459,59.243z M193.417,16.398
	c6.812,18.521-2.368,49.075-20.179,51.011C163.568,47.325,178.097,21.118,193.417,16.398z M168.588,87.779
	c6.259,17.99-3.128,47.31-20.332,48.876C139.263,117.104,153.729,92.074,168.588,87.779z M156.552,40.301
	c10.687,14.75,10.188,44.191-5.135,50.371C137.787,75.252,144.125,48.334,156.552,40.301z M129.531,8.698
	c14.647,13.229,20.734,44.545,5.867,54.543C117.495,49.962,118.166,20.002,129.531,8.698z M126.503,62.903
	c15.075,10.628,24.231,39.001,11.573,49.941C119.973,102.539,117.227,74.673,126.503,62.903z M96.408,172.072
	c5.314-17.616,29.293-35.228,43.639-26.688C135.982,165.774,110.466,177.146,96.408,172.072z M115.335,215.255
	c-5.401-17.089,3.44-44.678,18.955-45.922C142.135,187.927,128.779,211.399,115.335,215.255z M66.438,136.01
	c14.557-10.413,43.964-10.377,50.378,4.132C101.64,153.35,74.663,147.724,66.438,136.01z M100.445,104.715
	c19.016-0.84,44.401,16.546,40.977,33.471C120.124,141.191,100.301,120.17,100.445,104.715z M94.353,17.975
	c17.66,8.811,31.928,37.347,20.291,50.97C93.833,60.953,86.438,31.915,94.353,17.975z M85.104,59.289
	c18.095,3.769,37.82,26.207,30.546,41.314C94.888,98.336,81.267,73.803,85.104,59.289z M41.691,57.246
	c19.726-0.619,45.822,17.739,42.036,35.248C61.619,95.33,41.335,73.275,41.691,57.246z M99.779,121.532
	c-19.743,8.672-44.568-6.251-48.615-21.215C69.292,94.363,98.504,104.274,99.779,121.532z M13.874,117.222
	c17.041-9.952,48.735-6.271,53.76,10.92C49.56,141.186,21.21,131.479,13.874,117.222z M11.98,152.469
	c13.856-14.058,45.417-18.763,54.75-3.471C52.669,166.308,22.769,164.315,11.98,152.469z M47.03,172.717
	c9.778-16.408,38.355-28.111,50.655-15.916C88.465,176.315,59.921,181.354,47.03,172.717z M31.482,212.372
	c5.921-18.829,31.864-37.408,47.143-28.055C74.005,206.132,46.485,217.994,31.482,212.372z M75.06,216.253
	c0.55-18.445,19.178-41.755,35.294-37.239C111.733,199.824,90.001,217.492,75.06,216.253z M78.669,258.284
	c-3.74-19.383,10.257-48.057,28.147-47.089C113.118,232.584,94.542,256.098,78.669,258.284z M111.511,271.836
	c-8.69-17.725-2.703-49.061,14.816-52.818C138.017,238.006,126.255,265.564,111.511,271.836z M143.247,245.408
	c-12.372-14.493-14.284-45.235,1.175-52.95C159.908,207.412,155.531,235.999,143.247,245.408z M146.577,147.596
	c18.256,10.976,20.398,39.512,10.644,51.317C142.066,187.696,133.381,158.475,146.577,147.596z M178.571,272.266
	c-16.178-11.314-26.086-41.637-12.571-53.396C185.413,229.835,188.444,259.646,178.571,272.266z M193.812,232.819
	c-16.858-6.133-32.69-30.42-23.614-43.92C189.824,193.968,199.504,219.406,193.812,232.819z M166.878,160.712
	c20.903-1.552,38.829,20.165,37.695,35.196C186.022,195.499,162.452,176.951,166.878,160.712z M235.469,242.05
	c-19.585-2.478-42.474-24.696-35.988-41.396C221.767,201.314,238.331,226.287,235.469,242.05z M257.831,216.182
	c-19.575,2.549-47.335-13.173-45.277-30.968C234.287,180.228,256.618,200.203,257.831,216.182z M194.316,158.664
	c18.354-10.024,43.585,2.309,48.753,16.423C226.049,182.356,196.999,175.23,194.316,158.664z M225.143,147.457
	c16.587-14.897,45.804-8.258,54.615,5.13C263.875,164.306,231.972,164.019,225.143,147.457z"/>
</svg>
