<?xml version="1.0" encoding="utf-8"?>
<!-- Generator: Adobe Illustrator 12.0.1, SVG Export Plug-In . SVG Version: 6.00 Build 51448)  -->
<!DOCTYPE svg PUBLIC "-//W3C//DTD SVG 1.1//EN" "http://www.w3.org/Graphics/SVG/1.1/DTD/svg11.dtd" [
	<!ENTITY ns_svg "http://www.w3.org/2000/svg">
	<!ENTITY ns_xlink "http://www.w3.org/1999/xlink">
]>
<svg  version="1.1" id="Elements" xmlns="&ns_svg;" xmlns:xlink="&ns_xlink;" width="177.636" height="432"
	 viewBox="0 0 177.636 432" overflow="visible" enable-background="new 0 0 177.636 432" xml:space="preserve">
<path fill="#7DAF9C" d="M171.785,356.932c-0.254,0.277-0.518,0.539-0.783,0.801c-6.23,8.092-43.238-26.813-88.456-27.391
	c-28.221-0.36-59.297,26.472-72.27,26.713c-1.71,0.032-3.105-0.398-4.139-1.414c-0.427-0.428-0.823-0.887-1.212-1.355
	c-6.926-8.529-6.494-20.359,0.958-26.418c5.372-4.367,12.935-4.545,19.328-1.115c-3.853-21.871,4.664-41.063,8.233-40.582
	c-1.275,18.873,18.987,33.684,29.984,34.701c5.906-1.354,12.031-2.232,18.305-2.59c10.992-0.619,21.687,0.406,31.805,2.859
	l0.028-0.119c11.015-0.83,31.53-15.273,30.583-34.172c3.67-0.426,12.16,19.875,7.189,42.322c7.041-4.156,15.643-3.869,21.244,1.342
	C179.622,337.047,179.26,348.875,171.785,356.932z M91.714,416.182c6.2-5.908,22.208-2.713,24.288,11.014
	c14.666,0.355,50.479-0.586,50.479-0.586c-4.905-5.148-5.408-22.363,5.644-27.77c-3.333-0.934-6.985-1.695-10.766-2.336
	c-0.846,1.947-3.376,4.852-4.43,8.377c-3.015,10.1-0.724,15.133-5.776,15.512c-5.963,0.443-1.65-11.35-0.158-17.066
	c0.824-3.172,2.688-6.016,4.738-7.709c-2.623-0.379-5.27-0.725-7.861-1.049c-1.074,1.902-3.084,4.471-3.996,7.527
	c-3.023,10.105-0.725,15.131-5.787,15.516c-5.954,0.438-1.641-11.357-0.148-17.074c0.688-2.639,2.094-5.053,3.73-6.764
	c-2.664-0.348-5.213-0.701-7.602-1.08c-1.067,1.91-3.097,4.506-4.018,7.584c-3.022,10.09-0.725,15.129-5.784,15.502
	c-5.948,0.443-1.644-11.344-0.157-17.068c0.734-2.832,2.299-5.393,4.082-7.113c-3.441-0.771-6.23-1.705-8.049-2.908
	c0,0,0.834-34.359-8.609-34.59c-5.74-0.141-11.541,5.289-12.164,12.76c0.006,0.006-0.003,0.014,0.004,0.021
	c-0.41,4.82,1.346,10.484,6.641,16.041c-0.361,14.594-16.156,13.746-23.803,13.75c-2.884,0.006-4.604,0.137-3.91,1.26
	c4.621,7.475,9.192,13.471,13.404,18.256L91.714,416.182z M11.918,372.047c-3.73,5.17-7.703,11.578-11.582,19.465
	c-0.582,1.184,1.143,1.148,4.014,0.875c7.611-0.732,23.251-3.1,25.019,11.391c-4.735,6.041-5.936,11.848-5.063,16.607
	c-0.006,0.008,0.004,0.014-0.001,0.021c1.223,6.726,6.567,11.35,11.821,11.585c0.507,0.022,1.014,0.004,1.516-0.058
	c9.379-1.141,5.234-35.258,5.234-35.258c1.693-1.373,4.381-2.572,7.73-3.672c-1.941-1.541-3.744-3.939-4.749-6.686
	c-2.031-5.557-7.454-16.873-1.489-17.004c5.071-0.119,3.271,5.121,7.252,14.871c1.213,2.975,3.484,5.361,4.73,7.16
	c2.34-0.607,4.845-1.205,7.461-1.809c-1.793-1.545-3.425-3.813-4.364-6.371c-2.036-5.547-7.467-16.869-1.499-17.01
	c5.076-0.104,3.272,5.119,7.256,14.885c1.202,2.955,3.451,5.318,4.704,7.107c2.549-0.572,5.149-1.172,7.724-1.803
	c-2.205-1.486-4.334-4.137-5.46-7.215c-2.036-5.545-7.468-16.869-1.489-17.002c5.066-0.109,3.271,5.119,7.246,14.881
	c1.389,3.408,4.187,6.057,5.217,7.91c3.701-1.002,7.264-2.111,10.49-3.361c-11.521-4.316-12.681-21.498-8.296-27.096
	c0,0-35.736,2.516-50.3,4.285c-0.746,13.863-16.371,18.586-23.111,13.305L11.918,372.047z M77.275,0h-0.007v0.007h0.007V0z"/>
</svg>
