<?xml version="1.0" encoding="utf-8"?>
<!-- Generator: Adobe Illustrator 12.0.1, SVG Export Plug-In . SVG Version: 6.00 Build 51448)  -->
<!DOCTYPE svg PUBLIC "-//W3C//DTD SVG 1.1//EN" "http://www.w3.org/Graphics/SVG/1.1/DTD/svg11.dtd" [
	<!ENTITY ns_svg "http://www.w3.org/2000/svg">
	<!ENTITY ns_xlink "http://www.w3.org/1999/xlink">
]>
<svg  version="1.1" id="Elements" xmlns="&ns_svg;" xmlns:xlink="&ns_xlink;" width="504" height="302.43" viewBox="0 0 504 302.43"
	 overflow="visible" enable-background="new 0 0 504 302.43" xml:space="preserve">
<path fill="#92A778" d="M1.218,1.011c-1.89,100.042-1.584,200.067,0.938,300.096c150.181,1.764,300.365,1.764,450.547,0
	c2.518-100.028,2.821-200.053,0.938-300.096C302.834-0.337,152.025-0.337,1.218,1.011z M197.146,57.27
	c10.846-0.008,16.27-0.01,27.116-0.01c-0.002,12.555-0.002,18.832-0.003,31.386c-10.859,0.001-16.29,0.002-27.149,0.006
	C197.121,76.1,197.128,69.822,197.146,57.27z M88.171,246.513c-10.822-0.057-16.232-0.086-27.054-0.15
	c-0.164-12.502-0.233-18.75-0.353-31.25c10.844,0.047,16.267,0.068,27.111,0.109C87.975,227.737,88.034,233.995,88.171,246.513z
	 M87.827,208.92c-10.848-0.036-16.272-0.059-27.12-0.102c-0.111-12.501-0.155-18.748-0.221-31.249
	c10.862,0.026,16.293,0.038,27.156,0.061C87.696,190.146,87.734,196.404,87.827,208.92z M87.54,126.378
	c-10.871,0.003-16.305,0.003-27.176,0.005c0.007-12.499,0.021-18.749,0.072-31.249c10.866-0.021,16.299-0.03,27.165-0.047
	C87.557,107.604,87.545,113.861,87.54,126.378z M87.623,88.773c-10.864,0.021-16.296,0.031-27.161,0.055
	c0.06-12.5,0.102-18.75,0.206-31.25c10.851-0.041,16.277-0.061,27.127-0.096C87.708,69.999,87.673,76.258,87.623,88.773z
	 M121.516,246.659c-10.822-0.041-16.232-0.064-27.054-0.117c-0.131-12.52-0.187-18.779-0.282-31.299
	c10.844,0.037,16.267,0.055,27.111,0.086C121.366,227.86,121.412,234.128,121.516,246.659z M121.254,209.02
	c-10.848-0.027-16.271-0.043-27.12-0.078c-0.088-12.52-0.125-18.779-0.177-31.299c10.863,0.021,16.294,0.029,27.157,0.047
	C121.156,190.221,121.184,196.487,121.254,209.02z M121.037,126.372c-10.871,0.001-16.307,0.003-27.178,0.005
	c0.005-12.52,0.018-18.779,0.059-31.299c10.866-0.016,16.298-0.025,27.164-0.037C121.05,107.572,121.042,113.84,121.037,126.372z
	 M121.1,88.719c-10.864,0.016-16.297,0.024-27.161,0.043c0.047-12.52,0.081-18.779,0.164-31.299
	c10.851-0.033,16.277-0.048,27.127-0.074C121.165,69.921,121.138,76.188,121.1,88.719z M197.105,94.982
	c10.862-0.003,16.293-0.004,27.154-0.004c-0.002,12.554,0,18.831,0,31.385c-10.865,0-16.302,0-27.167,0.001
	C197.093,113.813,197.096,107.535,197.105,94.982z M257.766,126.364c-10.87-0.001-16.307-0.001-27.177-0.001
	c0-12.554,0-18.831-0.001-31.385c10.866,0,16.298,0.001,27.164,0.004C257.762,107.535,257.765,113.813,257.766,126.364z
	 M257.748,88.651c-10.863-0.004-16.295-0.006-27.159-0.007c-0.001-12.554-0.001-18.83-0.004-31.385
	c10.851,0,16.275,0.002,27.126,0.01C257.73,69.821,257.737,76.1,257.748,88.651z M360.384,246.542
	c-10.821,0.051-16.235,0.076-27.057,0.117c0.104-12.531,0.151-18.799,0.228-31.33c10.845-0.031,16.269-0.047,27.113-0.086
	C360.573,227.763,360.515,234.021,360.384,246.542z M360.715,208.941c-10.848,0.035-16.275,0.051-27.124,0.078
	c0.071-12.532,0.1-18.799,0.141-31.33c10.863-0.018,16.296-0.026,27.158-0.047C360.838,190.162,360.804,196.422,360.715,208.941z
	 M360.987,126.377c-10.87-0.002-16.308-0.004-27.178-0.005c-0.003-12.532-0.013-18.799-0.045-31.331
	c10.866,0.014,16.299,0.021,27.165,0.037C360.97,107.598,360.982,113.857,360.987,126.377z M360.908,88.762
	c-10.864-0.019-16.298-0.027-27.162-0.043c-0.038-12.531-0.064-18.798-0.131-31.33c10.851,0.026,16.278,0.041,27.129,0.074
	C360.827,69.982,360.86,76.242,360.908,88.762z M393.728,246.362c-10.821,0.064-16.23,0.094-27.052,0.15
	c0.137-12.518,0.194-18.775,0.295-31.291c10.844-0.041,16.267-0.061,27.111-0.109C393.962,227.612,393.892,233.862,393.728,246.362z
	 M394.14,208.82c-10.849,0.044-16.271,0.063-27.119,0.1c0.093-12.516,0.128-18.773,0.184-31.289
	c10.862-0.022,16.294-0.035,27.156-0.062C394.295,190.07,394.25,196.32,394.14,208.82z M394.482,126.383
	c-10.87-0.002-16.306-0.002-27.176-0.004c-0.005-12.517-0.018-18.775-0.061-31.291c10.867,0.017,16.299,0.025,27.166,0.046
	C394.462,107.634,394.476,113.884,394.482,126.383z M394.383,88.828c-10.864-0.023-16.297-0.035-27.161-0.055
	c-0.05-12.517-0.085-18.774-0.172-31.291c10.851,0.035,16.277,0.055,27.128,0.096C394.282,70.078,394.324,76.328,394.383,88.828z
	 M504,151.218h-0.008v-0.007H504V151.218z"/>
</svg>
