<?xml version="1.0" encoding="utf-8"?>
<!-- Generator: Adobe Illustrator 12.0.1, SVG Export Plug-In . SVG Version: 6.00 Build 51448)  -->
<!DOCTYPE svg PUBLIC "-//W3C//DTD SVG 1.1//EN" "http://www.w3.org/Graphics/SVG/1.1/DTD/svg11.dtd" [
	<!ENTITY ns_svg "http://www.w3.org/2000/svg">
	<!ENTITY ns_xlink "http://www.w3.org/1999/xlink">
]>
<svg  version="1.1" id="Elements" xmlns="&ns_svg;" xmlns:xlink="&ns_xlink;" width="504" height="171.491"
	 viewBox="0 0 504 171.491" overflow="visible" enable-background="new 0 0 504 171.491" xml:space="preserve">
<path fill="#C9D9B2" d="M133.176,146.202c-1.748,0.005-2.62,0.006-4.368,0.01c0.145-29.794,0.251-59.587,0.319-89.38
	c1.758-0.001,2.636-0.002,4.394-0.004c0.004-1.666,0.006-2.502,0.01-4.169c2.172-0.002,3.257-0.003,5.429-0.005
	c0.02-8.757,0.028-13.137,0.039-21.894c6.066-0.004,9.099-0.006,15.164-0.01C128.465,20.51,102.772,10.258,77.081,0
	C51.389,10.256,25.696,20.508,0,30.751c6.065,0.004,9.097,0.006,15.162,0.01c0.011,8.757,0.019,13.137,0.038,21.894
	c2.167,0.002,3.251,0.004,5.418,0.006c0.003,1.666,0.005,2.5,0.008,4.167c1.758,0.001,2.638,0.004,4.395,0.005
	c0.066,29.793,0.175,59.586,0.319,89.38c-1.747-0.004-2.622-0.005-4.368-0.01c0.01,1.667,0.013,2.502,0.023,4.169
	c-2.323-0.006-3.483-0.01-5.807-0.018c0.053,8.419,0.082,12.628,0.143,21.046c41.164,0.123,82.324,0.12,123.487,0.002
	c0.062-8.419,0.088-12.628,0.142-21.046c-2.323,0.007-3.482,0.01-5.807,0.016C133.163,148.704,133.167,147.869,133.176,146.202z
	 M27.482,27.673c16.534-6.506,33.067-13.011,49.599-19.521c16.531,6.511,33.063,13.017,49.598,19.521
	C93.613,27.684,60.547,27.685,27.482,27.673z M114.705,146.241c-1.742,0.003-2.614,0.005-4.356,0.007
	c-0.005,1.669-0.007,2.501-0.013,4.17c-5.364,0.008-8.046,0.013-13.41,0.018c-13.23,0.014-26.46,0.01-39.69,0
	c-5.368-0.005-8.052-0.008-13.42-0.018c-0.006-1.668-0.01-2.501-0.015-4.17c-1.741-0.002-2.614-0.004-4.355-0.007
	c-0.104-29.8-0.18-59.599-0.231-89.397c1.753,0.001,2.631,0.002,4.383,0.003c-0.002-1.668-0.004-2.501-0.006-4.17
	c22.323,0.009,44.646,0.009,66.969,0c-0.003,1.669-0.004,2.502-0.007,4.17c1.753-0.001,2.631-0.002,4.383-0.003
	C114.887,86.643,114.808,116.441,114.705,146.241z M504,85.75h-0.008v-0.008H504V85.75z"/>
</svg>
