<?xml version="1.0" encoding="utf-8"?>
<!-- Generator: Adobe Illustrator 12.0.1, SVG Export Plug-In . SVG Version: 6.00 Build 51448)  -->
<!DOCTYPE svg PUBLIC "-//W3C//DTD SVG 1.1//EN" "http://www.w3.org/Graphics/SVG/1.1/DTD/svg11.dtd" [
	<!ENTITY ns_svg "http://www.w3.org/2000/svg">
	<!ENTITY ns_xlink "http://www.w3.org/1999/xlink">
]>
<svg  version="1.1" id="Elements" xmlns="&ns_svg;" xmlns:xlink="&ns_xlink;" width="385.993" height="431.999"
	 viewBox="0 0 385.993 431.999" overflow="visible" enable-background="new 0 0 385.993 431.999" xml:space="preserve">
<path fill="#B08CC0" d="M385.381,94.158c-3.949-9.301-16.838,0.396-24.984,0.193c-1.904-0.053-4.311-3.543-1.992-8.4
	c2.15-4.496,0.193-11.689-3.139-14.335c-3.342-2.636-7.432-0.361-7.555,4.179c-0.113,4.541-3.781,19.412-3.781,19.412
	l-62.707,56.413c-1.719-12.837-5.986-25.011-12.334-35.978c0.301-0.221,0.6-0.441,0.891-0.68
	c8.553-6.902,10.605-18.557,4.576-26.032c-4.797-5.96-13.268-7.476-20.833-4.372c-1.938,0.793-3.826,1.895-5.57,3.305
	c-0.45,0.361-0.873,0.732-1.287,1.12l-29.401-17.79c-9.662-3.879-20.1-6.427-31.066-7.388c-6.26-0.547-12.448-0.556-18.487-0.062
	c-11.336,0.926-22.197,3.605-32.274,7.793c-0.167-0.318-0.353-0.635-0.537-0.952c-1.578-2.636-3.588-4.822-5.854-6.497
	c-5.835-4.312-13.346-5.219-19.289-1.666c-8.243,4.928-10.367,16.573-4.734,26.006c0.317,0.521,0.644,1.031,1.005,1.517
	c-10.931,9.715-19.712,21.704-25.495,35.289c-0.018,0.035-0.026,0.063-0.044,0.098c-1.238,2.905-2.327,5.873-3.276,8.92h0
	L39.838,61.434c0,0,1.86-15.057,3.35-19.307c1.49-4.24-1.49-7.793-5.51-6.523c-4.029,1.27-9.213,7.371-7.979,12.157
	c1.243,4.787-2.918,7.105-4.804,7.07C17.411,54.689,8.78,38.619,1.833,45.83c-6.92,7.176,7.934,13.744,8.569,13.744
	C0.538,59.689-4.088,71.49,11.234,72.469c-6.559,4.249-6.024,15.174,0.341,14.372c6.365-0.802,5.721-9.882,16.697-11.267
	c2.204-0.281,5.704,3.219,9.883,8.984c-3.403-2.637-8.666-3.342-15.207,1.33c5.686-1.287,15.683,3.298,18.028,8.287
	c-9.944-1.887-11.901,2.928-11.901,2.928c4.496-0.564,15.295,2.494,17.764,8.453c-8.093,0.309-6.629,7.405-6.629,7.405
	c3.421-2.292,13.673-3.12,19.086,7.229c5.078,9.556,9.917,19.147,13.858,27.1c-9.406,36.867-15.725,110.649,24.535,150.908
	c-1.781-23.803,11.446-13.497,11.804-13.409l-14.249,63.302c-4.828,21.956-3.414,28.438-12.541,37.564
	c-5.073,5.073-22.5,21.849-26.458,21.849c-3.958,0-16.089,2.424-11.235,7.277c-2.314,2.314-2.199,9.482,3.531,8.16
	c-0.961,3.159,2.066,7.767,6.682,7.751c2.791-0.009,6.162-1.708,9.583-6.438c9.081-12.554,29.577-24.896,35.969-24.896
	c6.391,0,13.988-6.681,12.783-14.986c-1.983-13.664,15.928-76.608,15.928-76.608c0.063-0.048,8.236-7.282,12.723-11.77
	c0,18.954,11.167,36.732,40.994,28.945c-30.563-10.873-21.158-32.031-10.579-32.031c14.986,0,17.631,14.105,10.579,21.158
	c12.342,0,22.921-7.802,22.921-19.836c9.036,9.036-0.221,28.432-4.408,32.619c4.709,0,11.213-2.246,16.834-6.918
	c0,0,16.666,53.2,13.553,65.746c-2.021,8.146,6.392,14.987,12.783,14.987s26.888,12.342,35.968,24.896
	c3.424,4.733,6.797,6.431,9.589,6.438c4.613,0.012,7.638-4.593,6.676-7.751c5.729,1.321,5.846-5.847,3.531-8.16
	c4.854-4.854-7.277-7.277-11.236-7.277c-3.957,0-20.506-17.842-26.458-21.848c-5.951-4.006-12.557-37.58-12.557-37.58l-8.388-36.731
	c5.855,3.172,23.361,3.083,32.875-1.67c-14.988,0-23.53-12.545-14.988-29.532c6.56-13.047,33.521-37.854,22.996-117.23
	c6.348-5.872,21.797-20.807,21.912-20.904c8.719-7.396,17.879-2.997,20.25,0.345c0,0,3.932-6.163-3.588-9.362
	c4.469-4.743,15.754-3.738,19.791-1.587c0,0-0.123-5.246-10.174-7.044c4.004-3.861,15.076-4.593,19.977-1.332
	c-4.486-6.761-9.715-7.986-13.875-6.717c6.029-3.941,10.588-5.986,12.57-4.929c9.848,5.264,6.23,14.557,11.934,17.599
	c5.713,3.051,10.158-8.489,5.504-14.854c14.811,4.584,14.432-7.751,5.158-11.401C372.801,104.27,389.34,103.459,385.381,94.158z
	 M112.886,84.355c-0.097-0.15-0.194-0.301-0.282-0.45c-2.786-4.654-1.736-10.394,2.328-12.817c4.064-2.434,9.618-0.627,12.395,4.02
	c0.035,0.053,0.062,0.105,0.088,0.158C122.301,77.902,117.443,80.943,112.886,84.355z M264.244,108.088
	c-0.044,0.035-0.08,0.061-0.123,0.096c-3.263-4.672-6.938-9.07-10.977-13.162c0.106-0.105,0.221-0.193,0.335-0.29
	c4.223-3.394,10.051-3.165,13.021,0.528C269.471,98.945,268.457,104.693,264.244,108.088z M305.035,189.773
	c8.927,14.035,31.186,3.861,27.548-10.216c23.037,14.514,10.887,38.705-5.535,43.542c4.15,4.076,27.377,5.954,39.909-6.787
	c0.164,20.575-15.634,29.517-32.084,29.646c12.695,7.834,20.172,24.525,13.762,31.038c-4.149-4.084-23.604-11.564-28.191,2.578
	c-4.586,14.142,30.112,17.394,42.9-0.932c-3.182,43.516-39.066,39.691-48.013,23.303c0,0-4.545,19.431,14.343,29.861
	c0,0-34.629,5.564-40.072-13.788C330.994,275.965,321.778,225.487,305.035,189.773z M178.204,0.007h-0.007V0h0.007V0.007z"/>
</svg>
