<?xml version="1.0" encoding="utf-8"?>
<!-- Generator: Adobe Illustrator 12.0.1, SVG Export Plug-In . SVG Version: 6.00 Build 51448)  -->
<!DOCTYPE svg PUBLIC "-//W3C//DTD SVG 1.1//EN" "http://www.w3.org/Graphics/SVG/1.1/DTD/svg11.dtd" [
	<!ENTITY ns_svg "http://www.w3.org/2000/svg">
	<!ENTITY ns_xlink "http://www.w3.org/1999/xlink">
]>
<svg  version="1.1" id="Elements" xmlns="&ns_svg;" xmlns:xlink="&ns_xlink;" width="504" height="145.446"
	 viewBox="0 0 504 145.446" overflow="visible" enable-background="new 0 0 504 145.446" xml:space="preserve">
<path fill="#002C06" d="M477.274,1.323c8.963,24.563,17.875,49.146,26.727,73.749c-167.999-1.241-336-1.235-504,0
	C8.85,50.468,17.767,25.888,26.728,1.323C176.908-0.441,327.092-0.441,477.274,1.323z M493.541,121.041
	c-22.928-0.146-45.854-0.359-68.78-0.646c0.056,9.15,0.088,13.724,0.151,22.874c22.896,0.325,45.793,0.57,68.69,0.734
	C493.576,134.819,493.564,130.226,493.541,121.041z M493.708,112.451c-22.994-0.085-45.987-0.216-68.98-0.389
	c-0.034-9.15-0.049-13.725-0.074-22.875c23.007,0.136,46.016,0.234,69.024,0.303C493.689,98.675,493.695,103.267,493.708,112.451z
	 M391.803,122.181c-22.994,0.087-45.987,0.217-68.98,0.389c-0.034,9.15-0.049,13.727-0.074,22.877
	c23.007-0.133,46.016-0.234,69.024-0.301C391.783,135.96,391.79,131.366,391.803,122.181z M391.635,110.708
	c-22.929,0.146-45.854,0.359-68.779,0.646c0.056-9.15,0.086-13.727,0.15-22.877c22.896-0.324,45.792-0.57,68.689-0.732
	C391.67,96.931,391.658,101.522,391.635,110.708z M79.434,89.866c-22.901-0.198-45.802-0.316-68.704-0.354
	c0.003,9.192,0.005,13.788,0.007,22.98c22.932,0.032,45.862,0.137,68.793,0.312C79.494,103.628,79.475,99.042,79.434,89.866z
	 M79.649,143.679c-23.012-0.082-46.023-0.131-69.036-0.146c-0.001-9.192-0.002-13.789-0.003-22.981
	c22.998,0.02,45.995,0.083,68.992,0.188C79.624,129.916,79.633,134.503,79.649,143.679z M183.89,89.113
	c-23.023-0.06-46.047-0.095-69.071-0.105c0,9.192,0.001,13.788,0.002,22.979c23.031,0.008,46.061,0.029,69.092,0.063
	C183.906,102.875,183.902,98.288,183.89,89.113z M183.889,144.078c-23.023,0.06-46.046,0.094-69.069,0.105
	c0-9.197,0-13.796,0.001-22.993c23.031-0.008,46.061-0.029,69.092-0.062C183.906,130.309,183.902,134.898,183.889,144.078z
	 M286.52,87.781c-23.013,0.082-46.024,0.129-69.036,0.146c-0.002,9.192-0.002,13.786-0.004,22.979
	c22.998-0.019,45.995-0.081,68.992-0.188C286.494,101.544,286.503,96.956,286.52,87.781z M286.304,145.056
	c-22.901,0.197-45.802,0.315-68.704,0.354c0.003-9.191,0.005-13.788,0.007-22.98c22.932-0.033,45.862-0.136,68.793-0.312
	C286.364,131.293,286.344,135.881,286.304,145.056z"/>
</svg>
