<?xml version="1.0" encoding="utf-8"?>
<!-- Generator: Adobe Illustrator 12.0.1, SVG Export Plug-In . SVG Version: 6.00 Build 51448)  -->
<!DOCTYPE svg PUBLIC "-//W3C//DTD SVG 1.1//EN" "http://www.w3.org/Graphics/SVG/1.1/DTD/svg11.dtd" [
	<!ENTITY ns_svg "http://www.w3.org/2000/svg">
	<!ENTITY ns_xlink "http://www.w3.org/1999/xlink">
]>
<svg  version="1.1" id="Elements" xmlns="&ns_svg;" xmlns:xlink="&ns_xlink;" width="275.314" height="431.999"
	 viewBox="0 0 275.314 431.999" overflow="visible" enable-background="new 0 0 275.314 431.999" xml:space="preserve">
<path fill="#D1D3D4" d="M98.424,417.625c-3.422,4.056-8.639,5.683-14.768,5.708c-23.667,0.098-60.933-23.676-60.933-23.676
	s-6.432-7.437-11.228-24.452c-1.718-6.139-3.234-13.524-4.153-22.265c-0.138-1.313,1.47-0.685,4.069,0.563
	c-18.82-28.017-10.672-29.557-1.747-32.434l1.829,7.017c8.875,6.536,19.034,3.295,23.564-5.549l0.011-0.003l-1.048-4.496
	c6.264-2.026,9.335,4.772,5.788,16.053c3.803-6.46,11.386-8.835,16.496-6.217c8.408,4.308-7.255,34.899-7.255,34.899
	c1.115,1.873,3.223,3.925,5.988,6.113c2.408-0.81,4.651-0.714,5.87,0.551c1.061,1.11,0.375,1.986-1.051,2.987
	c1.987,1.378,4.131,2.803,6.379,4.272c2.592-0.984,5.041-0.953,6.329,0.392c1.075,1.127,0.366,2-1.087,3.016
	c2.194,1.417,4.429,2.877,6.627,4.357c2.081-0.521,3.949-0.315,5.011,0.803c0.872,0.908,0.577,1.651-0.327,2.438
	c3.127,2.218,6.088,4.489,8.686,6.776C100.139,402.106,104.839,410.021,98.424,417.625z M263.902,362.17
	c18.82-28.017,10.672-29.557,1.746-32.434l-1.828,7.017c-8.875,6.536-19.035,3.295-23.564-5.549l-0.012-0.003l1.049-4.496
	c-6.264-2.026-9.334,4.772-5.787,16.053c-3.805-6.46-11.387-8.835-16.496-6.217c-8.408,4.308,7.254,34.899,7.254,34.899
	c-1.115,1.873-3.223,3.925-5.988,6.113c-2.408-0.81-4.652-0.714-5.871,0.551c-1.061,1.11-0.375,1.986,1.051,2.987
	c-1.986,1.378-4.131,2.803-6.377,4.272c-2.594-0.984-5.043-0.953-6.33,0.392c-1.076,1.127-0.367,2,1.086,3.016
	c-2.195,1.417-4.428,2.877-6.627,4.357c-2.08-0.521-3.947-0.315-5.01,0.803c-0.873,0.908-0.578,1.651,0.326,2.438
	c-3.127,2.218-6.088,4.489-8.686,6.776c-8.664,7.628-13.363,15.543-6.948,23.146c3.521,4.174,8.945,5.774,15.309,5.705
	c23.689-0.259,60.392-23.673,60.392-23.673s6.432-7.437,11.229-24.452c1.717-6.139,3.234-13.524,4.152-22.265
	C268.109,360.295,266.502,360.923,263.902,362.17z M171.456,340.695c0,8.604,6.974,15.577,15.57,15.577
	c8.604,0,15.576-6.973,15.576-15.577c0-8.604-6.973-15.577-15.576-15.577C178.43,325.118,171.456,332.092,171.456,340.695z
	 M131.195,343.631c0,8.604,6.973,15.577,15.577,15.577c8.596,0,15.568-6.973,15.568-15.577c0-8.596-6.973-15.568-15.568-15.568
	C138.167,328.063,131.195,335.035,131.195,343.631z M91.374,332.17c0,8.604,6.974,15.578,15.577,15.578
	c8.604,0,15.578-6.974,15.578-15.578c0-8.595-6.974-15.568-15.578-15.568C98.347,316.602,91.374,323.575,91.374,332.17z
	 M187.174,363.176v15.647l-13.885-10.578l-6.17,16.529l-15.428-15.428l-9.918,18.072l-11.239-18.072l-16.53,13.444v-20.057
	l-15.868,9.918l1.764-17.411l-14.423,7.758c3.544,4.267,7.035,7.863,10.562,10.905c1.242,1.075,2.495,2.081,3.755,3.015
	c4.029,2.998,8.146,5.334,12.527,7.167c3.403,1.429,6.974,2.539,10.764,3.403c5.599,1.278,11.717,2.02,18.549,2.39
	c0.229,0.017,0.468,0.035,0.696,0.044c1.852,0.088,3.694,0.141,5.51,0.141c9.741,0,19.024-1.322,27.277-3.588
	c8.25-2.274,15.471-5.51,21.078-9.292c2.344-1.578,4.408-3.261,6.145-5.007L187.174,363.176z M145.432,0h-0.007v0.007h0.007V0z"/>
</svg>
